<svg width="600" height="529" viewBox="0 0 600 529" fill="none" xmlns="http://www.w3.org/2000/svg">
<path d="M229.663 434.683L223.947 487.256C223.947 487.256 221.893 496.155 209.486 503.343C201.535 507.949 197.835 516.984 196.204 522.879C195.669 524.812 196.479 526.62 197.962 527.641C199.588 528.76 201.718 528.11 203.541 527.353L300.102 487.256L396.663 527.353C398.486 528.11 400.616 528.76 402.243 527.641C403.725 526.62 404.535 524.812 404 522.879C402.369 516.984 398.67 507.949 390.718 503.343C378.311 496.155 376.257 487.256 376.257 487.256L370.679 434.683H229.663Z" fill="#8D8D8D"/>
<path d="M594.866 0H5.13406C2.2986 0 0 2.29859 0 5.13405V392.926H25.6703C22.8348 392.926 20.5362 390.628 20.5362 387.792V25.6703C20.5362 22.8348 22.8348 20.5362 25.6703 20.5362H574.33C577.165 20.5362 579.464 22.8348 579.464 25.6703V387.792C579.464 390.628 577.165 392.926 574.33 392.926H600V5.13406C600 2.29859 597.701 0 594.866 0Z" fill="#0C0C0C"/>
<path d="M5.13407 434.683H594.866C597.701 434.683 600 432.385 600 429.549V392.926H574.33H25.6703H0V429.549C0 432.385 2.29861 434.683 5.13407 434.683Z" fill="#B4B4B4"/>
</svg>
