<svg width="18" height="21" viewBox="0 0 18 21" fill="none" xmlns="http://www.w3.org/2000/svg">
<g clip-path="url(#clip0_85_687)">
<path d="M9 0.158203C6.51562 0.158203 4.5 2.17382 4.5 4.6582C4.5 7.14258 6.51562 9.1582 9 9.1582C11.4844 9.1582 13.5 7.14258 13.5 4.6582C13.5 2.17382 11.4844 0.158203 9 0.158203ZM6.75 10.6582C3.01172 10.6582 0 13.6699 0 17.4082V18.1582C0 19.8223 1.33594 19.6582 3 19.6582H15C16.6641 19.6582 18 19.8223 18 18.1582V17.4082C18 13.6699 14.9883 10.6582 11.25 10.6582H6.75Z" fill="white"/>
</g>
<defs>
<clipPath id="clip0_85_687">
<rect width="18" height="20" fill="white" transform="translate(0 0.158203)"/>
</clipPath>
</defs>
</svg>
