<svg width="18" height="21" viewBox="0 0 18 21" fill="none" xmlns="http://www.w3.org/2000/svg">
<g clip-path="url(#clip0_85_680)">
<path fill-rule="evenodd" clip-rule="evenodd" d="M8 0.285156C7.44614 0.413412 6.78518 0.639658 5.83795 0.963895L5.26491 1.16005C2.25837 2.1892 0.755027 2.7038 0.37752 3.24167C0 3.77954 0 5.37833 0 8.57596V10.1507C0 15.7887 4.23896 18.5248 6.89856 19.6866C7.32105 19.8711 7.62011 20.0017 8 20.0782V0.285156ZM8.97532 20.1592C8.9835 20.1593 8.99173 20.1593 9 20.1593C9.00827 20.1593 9.0165 20.1593 9.02468 20.1592L9 20.1593L8.97532 20.1592ZM10 20.0782C10.3799 20.0017 10.6787 19.8712 11.1012 19.6867C13.7608 18.5249 18 15.7887 18 10.1507V8.57596C18 5.37833 18 3.77954 17.6225 3.24167C17.245 2.7038 15.7417 2.18923 12.7352 1.16009L12.1623 0.963974C11.2151 0.639748 10.5539 0.413409 10 0.285156V20.0782Z" fill="#767588"/>
</g>
<defs>
<clipPath id="clip0_85_680">
<rect width="18" height="20" fill="white" transform="translate(0 0.158203)"/>
</clipPath>
</defs>
</svg>
