<svg width="18" height="19" viewBox="0 0 18 19" fill="none" xmlns="http://www.w3.org/2000/svg">
<g clip-path="url(#clip0_85_670)">
<path d="M8.32503 0.158203C4.52842 0.161902 2.56406 0.229827 1.31784 1.47604C0.0716238 2.72226 0.00369909 4.68662 0 8.48323H4.42228C4.1064 8.08866 3.87037 7.62325 3.74167 7.10842C3.25723 5.17066 5.01246 3.41543 6.95022 3.89987C7.46505 4.02857 7.93046 4.2646 8.32503 4.58048V0.158203Z" fill="#767588"/>
<path d="M0 9.83398C0.00369909 13.6305 0.0716238 15.5948 1.31784 16.8411C2.56406 18.0872 4.52842 18.1552 8.32503 18.1589V11.0702C7.62328 12.4718 6.17397 13.434 4.4999 13.434C4.1271 13.434 3.82488 13.1318 3.82488 12.759C3.82488 12.3862 4.1271 12.084 4.4999 12.084C5.88304 12.084 7.04197 11.124 7.3467 9.83398H0Z" fill="#767588"/>
<path d="M9.6748 18.1589C13.4714 18.1552 15.4357 18.0872 16.682 16.8411C17.9281 15.5948 17.9961 13.6305 17.9998 9.83398H10.6531C10.9578 11.124 12.1168 12.084 13.4999 12.084C13.8727 12.084 14.175 12.3862 14.175 12.759C14.175 13.1318 13.8727 13.434 13.4999 13.434C11.8258 13.434 10.3765 12.4718 9.6748 11.0702V18.1589Z" fill="#767588"/>
<path d="M17.9998 8.48323C17.9961 4.68662 17.9281 2.72226 16.682 1.47604C15.4357 0.229827 13.4714 0.161902 9.6748 0.158203V4.58048C10.0694 4.2646 10.5348 4.02857 11.0495 3.89987C12.9874 3.41543 14.7426 5.17066 14.2581 7.10842C14.1294 7.62325 13.8934 8.08866 13.5775 8.48323H17.9998Z" fill="#767588"/>
<path d="M6.6225 5.20979C7.6229 5.45989 8.32474 6.35875 8.32474 7.3899V8.48343H7.23121C6.20006 8.48343 5.3012 7.78159 5.0511 6.78119C4.81385 5.83217 5.67348 4.97254 6.6225 5.20979Z" fill="#767588"/>
<path d="M9.6748 7.3899V8.48343H10.7683C11.7994 8.48343 12.6983 7.78159 12.9484 6.78119C13.1857 5.83217 12.326 4.97254 11.3771 5.20979C10.3766 5.45989 9.6748 6.35875 9.6748 7.3899Z" fill="#767588"/>
</g>
<defs>
<clipPath id="clip0_85_670">
<rect width="18" height="18" fill="white" transform="translate(0 0.158203)"/>
</clipPath>
</defs>
</svg>
