<svg width="18" height="15" viewBox="0 0 18 15" fill="none" xmlns="http://www.w3.org/2000/svg">
<path d="M1 0C0.447716 0 0 0.447715 0 1V3.60112C0 4.15341 0.447715 4.60112 1 4.60112H17C17.5523 4.60112 18 4.15341 18 3.60112V1C18 0.447716 17.5523 0 17 0H1Z" fill="white"/>
<path fill-rule="evenodd" clip-rule="evenodd" d="M1 6.01685C0.447716 6.01685 0 6.46457 0 7.01685V13.1573C0 13.7096 0.447715 14.1573 1 14.1573H17C17.5523 14.1573 18 13.7096 18 13.1573V7.01685C18 6.46457 17.5523 6.01685 17 6.01685H1ZM7.92 10.4663C7.92 9.99158 7.53517 9.60674 7.06045 9.60674H3.73955C3.26483 9.60674 2.88 9.99158 2.88 10.4663V10.4663C2.88 10.941 3.26484 11.3258 3.73955 11.3258H7.06045C7.53517 11.3258 7.92 10.941 7.92 10.4663V10.4663ZM9.85955 9.60674C9.38483 9.60674 9 9.99158 9 10.4663V10.4663C9 10.941 9.38483 11.3258 9.85955 11.3258H11.1404C11.6152 11.3258 12 10.941 12 10.4663V10.4663C12 9.99158 11.6152 9.60674 11.1404 9.60674H9.85955Z" fill="white"/>
</svg>
