<svg width="18" height="19" viewBox="0 0 18 19" fill="none" xmlns="http://www.w3.org/2000/svg">
<path d="M11.8476 7.84799C11.8968 8.33573 11.925 8.80777 11.925 9.24957C11.925 10.0766 11.8262 11.0104 11.675 11.9546C10.7413 12.1075 9.8178 12.2074 9 12.2074C8.18589 12.2074 7.26268 12.1078 6.32495 11.9543C6.17384 11.0102 6.075 10.0765 6.075 9.24957C6.075 8.80795 6.10319 8.33581 6.15248 7.84799C7.13664 8.00731 8.11843 8.11193 9 8.11193C9.88166 8.11193 10.8634 8.00731 11.8476 7.84799Z" fill="white"/>
<path d="M13.1788 7.60216C13.2396 8.17293 13.275 8.72862 13.275 9.24955C13.275 10.0096 13.1998 10.8435 13.0799 11.6898C14.7793 11.3312 16.35 10.8731 17.1915 10.6123C17.4634 10.528 17.5702 10.4945 17.7136 10.4365C17.7852 10.4076 17.8509 10.3781 17.9365 10.3367C17.9784 9.98024 18 9.61741 18 9.24955C18 8.27703 17.8492 7.34017 17.5699 6.46154L17.4971 6.48469C16.6173 6.75537 14.9702 7.23387 13.1788 7.60216Z" fill="white"/>
<path d="M17.0586 5.19259C16.1741 5.46366 14.6392 5.90413 12.9942 6.24706C12.6153 3.91824 11.9512 1.5955 11.6316 0.543649C14.0076 1.27719 15.9663 2.97815 17.0586 5.19259Z" fill="white"/>
<path d="M11.6672 6.49521C10.736 6.64734 9.8154 6.74675 9 6.74675C8.1846 6.74675 7.26409 6.64734 6.33294 6.49521C6.68975 4.29166 7.32668 2.04066 7.6524 0.966091C7.73571 0.69109 7.76888 0.583073 7.82623 0.438096C7.85486 0.365668 7.884 0.299239 7.92488 0.2127C8.27743 0.170263 8.63623 0.148438 9 0.148438C9.38006 0.148438 9.75454 0.172256 10.1223 0.218499C10.1301 0.248671 10.1373 0.275671 10.1444 0.301215C10.1655 0.376685 10.1985 0.482752 10.2538 0.660735L10.2597 0.679432C10.5373 1.57188 11.2731 4.06106 11.6672 6.49521Z" fill="white"/>
<path d="M5.00574 6.24705C5.38293 3.92849 6.04273 1.61827 6.36164 0.566046L6.36842 0.543649C3.99237 1.27718 2.03373 2.97814 0.941434 5.19258C1.82586 5.46365 3.36081 5.90412 5.00574 6.24705Z" fill="white"/>
<path d="M0.430149 6.46154C0.15084 7.34018 0 8.27704 0 9.24956C0 9.62999 0.0230828 10.005 0.0679114 10.3732L0.209751 10.421L0.210883 10.4213L0.212271 10.4219L0.213249 10.4221C0.2589 10.4375 1.5969 10.8843 3.35895 11.3276C3.85617 11.4527 4.38263 11.5763 4.92005 11.6896C4.80021 10.8434 4.725 10.0096 4.725 9.24956C4.725 8.72845 4.76035 8.17277 4.82119 7.60217C3.02938 7.23375 1.38187 6.75509 0.50226 6.48446L0.49614 6.48257L0.430149 6.46154Z" fill="white"/>
<path d="M8.99999 13.5726C9.75162 13.5726 10.5762 13.4965 11.4131 13.3753C11.0585 15.0938 10.6055 16.6822 10.3476 17.533C10.2643 17.808 10.2311 17.916 10.1738 18.061C10.1451 18.1335 10.116 18.1999 10.0751 18.2865C9.72256 18.3289 9.36376 18.3507 8.99999 18.3507C8.63622 18.3507 8.27742 18.3289 7.92487 18.2865C7.88399 18.1999 7.85484 18.1335 7.82622 18.061C7.76887 17.9161 7.7357 17.808 7.65239 17.5331C7.39447 16.6822 6.94153 15.094 6.58694 13.3757C7.42105 13.4964 8.24579 13.5726 8.99999 13.5726Z" fill="white"/>
<path d="M3.03299 12.6524C1.91873 12.372 0.969718 12.0904 0.39082 11.9107C1.2622 14.7971 3.51412 17.0743 6.36841 17.9554L6.36164 17.9331C6.08318 17.0143 5.54482 15.1364 5.16163 13.1313C4.41642 12.9856 3.69189 12.8182 3.03299 12.6524Z" fill="white"/>
<path d="M17.587 11.9176C16.6785 12.1992 14.8213 12.7436 12.8384 13.1311C12.4552 15.1363 11.9169 17.0142 11.6384 17.9331L11.6316 17.9554C14.4859 17.0743 16.7378 14.7971 17.6092 11.9107L17.587 11.9176Z" fill="white"/>
<path d="M0.0945452 10.3963C0.125702 10.4004 0.1511 10.4047 0.159525 10.4066C0.166905 10.4084 0.178468 10.4116 0.182659 10.4127L0.191925 10.4154L0.196914 10.4169L0.20216 10.4186L0.206557 10.42C0.204088 10.4192 0.154082 10.4065 0.0945452 10.3963Z" fill="white"/>
</svg>
