<svg width="18" height="20" viewBox="0 0 18 20" fill="none" xmlns="http://www.w3.org/2000/svg">
<g clip-path="url(#clip0_85_698)">
<path fill-rule="evenodd" clip-rule="evenodd" d="M10.6852 0.30243C10.3344 0.158203 9.88957 0.158203 8.99999 0.158203C8.11041 0.158203 7.66562 0.158203 7.31481 0.30243C6.847 0.494736 6.47534 0.863594 6.28157 1.32785C6.19312 1.53978 6.1585 1.78625 6.14495 2.14577C6.12505 2.6741 5.85204 3.16315 5.39068 3.4275C4.92932 3.69184 4.36607 3.68197 3.89509 3.43492C3.57459 3.2668 3.34221 3.17331 3.11304 3.14337C2.61103 3.07778 2.10332 3.21279 1.70162 3.5187C1.40034 3.74814 1.17795 4.13042 0.733166 4.89497C0.288386 5.65953 0.0660009 6.04181 0.0164347 6.41548C-0.0496632 6.91369 0.0863787 7.41755 0.394624 7.81624C0.535317 7.99823 0.733042 8.15114 1.03992 8.34251C1.49107 8.62388 1.78135 9.10315 1.78132 9.63187C1.78129 10.1606 1.49102 10.6398 1.03992 10.9211C0.732995 11.1125 0.535232 11.2655 0.394529 11.4475C0.0862841 11.8462 -0.0497483 12.35 0.01634 12.8482C0.0659063 13.2218 0.288301 13.6042 0.733071 14.3687C1.17785 15.1332 1.40024 15.5156 1.70153 15.745C2.10323 16.0509 2.61093 16.1859 3.11294 16.1203C3.3421 16.0904 3.57446 15.9969 3.89494 15.8288C4.36596 15.5817 4.92924 15.5719 5.39063 15.8362C5.85202 16.1006 6.12504 16.5896 6.14495 17.1181C6.1585 17.4775 6.19312 17.724 6.28157 17.9359C6.47534 18.4001 6.847 18.769 7.31481 18.9614C7.66562 19.1055 8.11041 19.1055 8.99999 19.1055C9.88957 19.1055 10.3344 19.1055 10.6852 18.9614C11.153 18.769 11.5246 18.4001 11.7184 17.9359C11.8068 17.724 11.8415 17.4775 11.8551 17.118C11.875 16.5896 12.1479 16.1006 12.6093 15.8362C13.0706 15.5718 13.6339 15.5817 14.105 15.8288C14.4255 15.9969 14.6578 16.0903 14.8869 16.1202C15.3889 16.1859 15.8966 16.0509 16.2983 15.745C16.5997 15.5155 16.822 15.1332 17.2668 14.3686C17.7116 13.6041 17.9339 13.2218 17.9836 12.8482C18.0496 12.35 17.9136 11.8461 17.6054 11.4474C17.4646 11.2654 17.2669 11.1124 16.96 10.9211C16.5089 10.6398 16.2186 10.1605 16.2186 9.63178C16.2186 9.10305 16.5089 8.62397 16.96 8.3427C17.267 8.15123 17.4647 7.99833 17.6055 7.81624C17.9137 7.41762 18.0497 6.91375 17.9837 6.41553C17.934 6.04187 17.7117 5.65959 17.2669 4.89504C16.8221 4.13048 16.5998 3.7482 16.2984 3.51877C15.8967 3.21285 15.389 3.07784 14.887 3.14344C14.6579 3.17338 14.4255 3.26685 14.1051 3.43495C13.634 3.68202 13.0707 3.6919 12.6094 3.42753C12.148 3.16316 11.875 2.67409 11.855 2.14572C11.8414 1.78623 11.8068 1.53977 11.7184 1.32785C11.5246 0.863594 11.153 0.494736 10.6852 0.30243ZM8.99999 12.474C10.5816 12.474 11.8637 11.2016 11.8637 9.63187C11.8637 8.06218 10.5816 6.78977 8.99999 6.78977C7.41836 6.78977 6.13625 8.06218 6.13625 9.63187C6.13625 11.2016 7.41836 12.474 8.99999 12.474Z" fill="white"/>
</g>
<defs>
<clipPath id="clip0_85_698">
<rect width="18" height="19" fill="white" transform="translate(0 0.158203)"/>
</clipPath>
</defs>
</svg>
