<svg width="18" height="20" viewBox="0 0 18 20" fill="none" xmlns="http://www.w3.org/2000/svg">
<path d="M2.2751 0.947266C1.0186 0.947266 0 1.96586 0 3.22237V3.22237C0 4.47887 1.0186 5.49747 2.2751 5.49747H15.7249C16.9814 5.49747 18 4.47887 18 3.22237V3.22237C18 1.96586 16.9814 0.947266 15.7249 0.947266H2.2751ZM11.2928 3.22239C11.2928 2.58785 11.8072 2.07346 12.4418 2.07346H15.9282C16.5627 2.07346 17.0771 2.58785 17.0771 3.22239V3.22239C17.0771 3.85692 16.5627 4.37131 15.9282 4.37131H12.4418C11.8072 4.37131 11.2928 3.85692 11.2928 3.22239V3.22239ZM2.2751 7.774C1.0186 7.774 0 8.79259 0 10.0491V10.0491C0 11.3056 1.0186 12.3242 2.2751 12.3242H15.7249C16.9814 12.3242 18 11.3056 18 10.0491V10.0491C18 8.79261 16.9814 7.77402 15.7249 7.77401L2.2751 7.774ZM7.3158 10.0491C7.3158 9.41456 7.83019 8.90018 8.46471 8.90018H15.9282C16.5628 8.90018 17.0772 9.41456 17.0772 10.0491V10.0491C17.0772 10.6836 16.5628 11.198 15.9282 11.198H8.46471C7.83019 11.198 7.3158 10.6836 7.3158 10.0491V10.0491ZM2.2751 14.5993C1.0186 14.5993 0 15.6179 0 16.8744V16.8744C0 18.1309 1.0186 19.1495 2.2751 19.1495H15.7249C16.9814 19.1495 18 18.1309 18 16.8744V16.8744C18 15.6179 16.9814 14.5993 15.7249 14.5993H2.2751ZM13.4242 16.8744C13.4242 16.2399 13.9386 15.7255 14.5731 15.7255H15.9282C16.5627 15.7255 17.0771 16.2399 17.0771 16.8744V16.8744C17.0771 17.5089 16.5627 18.0233 15.9282 18.0233H14.5731C13.9386 18.0233 13.4242 17.5089 13.4242 16.8744V16.8744Z" fill="white"/>
</svg>
